<svg width="16" height="17" viewBox="0 0 16 17" fill="none" xmlns="http://www.w3.org/2000/svg">
  <rect y="0.5" width="16" height="16" rx="8" fill="#003399"/>
  <rect x="0.25" y="0.75" width="15.5" height="15.5" rx="7.75" stroke="black" stroke-opacity="0.2" stroke-width="0.5"/>
  <path d="M8.04083 3.16666L7.80687 3.88672L8.1669 4.0037L8.04083 3.16666Z" fill="#FFCC00"/>
  <path d="M8.04083 3.16666L8.27479 3.88672L7.91476 4.0037L8.04083 3.16666Z" fill="#FFCC00"/>
  <path d="M8.76086 3.68982L8.00375 3.68982L8.00375 4.06838L8.76086 3.68982Z" fill="#FFCC00"/>
  <path d="M8.76086 3.68982L8.14834 4.13484L7.92583 3.82858L8.76086 3.68982Z" fill="#FFCC00"/>
  <path d="M8.48572 4.53632L8.25176 3.81625L7.89173 3.93324L8.48572 4.53632Z" fill="#FFCC00"/>
  <path d="M8.48572 4.53632L7.8732 4.09129L8.09571 3.78503L8.48572 4.53632Z" fill="#FFCC00"/>
  <path d="M7.32068 3.68982L8.0778 3.68982L8.0778 4.06838L7.32068 3.68982Z" fill="#FFCC00"/>
  <path d="M7.32068 3.68982L7.9332 4.13484L8.15571 3.82858L7.32068 3.68982Z" fill="#FFCC00"/>
  <path d="M7.59583 4.53632L7.82979 3.81625L8.18982 3.93324L7.59583 4.53632Z" fill="#FFCC00"/>
  <path d="M7.59583 4.53632L8.20835 4.09129L7.98583 3.78503L7.59583 4.53632Z" fill="#FFCC00"/>
  <path d="M8.04083 12.2521L7.80687 12.9721L8.1669 13.0891L8.04083 12.2521Z" fill="#FFCC00"/>
  <path d="M8.04083 12.2521L8.27479 12.9721L7.91476 13.0891L8.04083 12.2521Z" fill="#FFCC00"/>
  <path d="M8.76086 12.7752L8.00375 12.7752V13.1538L8.76086 12.7752Z" fill="#FFCC00"/>
  <path d="M8.76086 12.7752L8.14834 13.2203L7.92583 12.914L8.76086 12.7752Z" fill="#FFCC00"/>
  <path d="M8.48572 13.6217L8.25176 12.9017L7.89173 13.0187L8.48572 13.6217Z" fill="#FFCC00"/>
  <path d="M8.48572 13.6217L7.8732 13.1767L8.09571 12.8705L8.48572 13.6217Z" fill="#FFCC00"/>
  <path d="M7.32068 12.7752L8.0778 12.7752L8.0778 13.1538L7.32068 12.7752Z" fill="#FFCC00"/>
  <path d="M7.32068 12.7752L7.9332 13.2203L8.15571 12.914L7.32068 12.7752Z" fill="#FFCC00"/>
  <path d="M7.59583 13.6217L7.82979 12.9017L8.18982 13.0187L7.59583 13.6217Z" fill="#FFCC00"/>
  <path d="M7.59583 13.6217L8.20835 13.1767L7.98583 12.8705L7.59583 13.6217Z" fill="#FFCC00"/>
  <path d="M3.49799 7.70944L3.26402 8.4295L3.62405 8.54648L3.49799 7.70944Z" fill="#FFCC00"/>
  <path d="M3.49799 7.70944L3.73195 8.4295L3.37192 8.54648L3.49799 7.70944Z" fill="#FFCC00"/>
  <path d="M4.21796 8.2326L3.46084 8.2326V8.61116L4.21796 8.2326Z" fill="#FFCC00"/>
  <path d="M4.21796 8.2326L3.60544 8.67763L3.38292 8.37137L4.21796 8.2326Z" fill="#FFCC00"/>
  <path d="M3.94281 9.07904L3.70885 8.35898L3.34882 8.47596L3.94281 9.07904Z" fill="#FFCC00"/>
  <path d="M3.94281 9.07904L3.33029 8.63402L3.5528 8.32776L3.94281 9.07904Z" fill="#FFCC00"/>
  <path d="M2.77777 8.2326L3.53489 8.23261L3.53489 8.61116L2.77777 8.2326Z" fill="#FFCC00"/>
  <path d="M2.77777 8.2326L3.39029 8.67763L3.6128 8.37137L2.77777 8.2326Z" fill="#FFCC00"/>
  <path d="M3.05292 9.07904L3.28688 8.35898L3.64691 8.47596L3.05292 9.07904Z" fill="#FFCC00"/>
  <path d="M3.05292 9.07904L3.66544 8.63402L3.44293 8.32776L3.05292 9.07904Z" fill="#FFCC00"/>
  <path d="M5.32446 5.14493L5.93698 4.69991L5.71447 4.39365L5.32446 5.14493Z" fill="#FFCC00"/>
  <path d="M5.32446 5.14493L5.55843 4.42487L5.91846 4.54185L5.32446 5.14493Z" fill="#FFCC00"/>
  <path d="M5.04944 4.29843L5.66196 4.74345L5.88447 4.43719L5.04944 4.29843Z" fill="#FFCC00"/>
  <path d="M5.04944 4.29843L5.80656 4.29843L5.80656 4.67699L5.04944 4.29843Z" fill="#FFCC00"/>
  <path d="M5.76971 3.77527L5.53575 4.49533L5.89578 4.61231L5.76971 3.77527Z" fill="#FFCC00"/>
  <path d="M5.76971 3.77527L6.00368 4.49533L5.64365 4.61231L5.76971 3.77527Z" fill="#FFCC00"/>
  <path d="M6.21442 5.1449L5.6019 4.69987L5.82441 4.39361L6.21442 5.1449Z" fill="#FFCC00"/>
  <path d="M6.21442 5.1449L5.98045 4.42484L5.62042 4.54182L6.21442 5.1449Z" fill="#FFCC00"/>
  <path d="M6.48956 4.2984L5.87704 4.74342L5.65453 4.43716L6.48956 4.2984Z" fill="#FFCC00"/>
  <path d="M6.48956 4.2984L5.73245 4.2984L5.73245 4.67696L6.48956 4.2984Z" fill="#FFCC00"/>
  <path d="M4.55164 6.80771L4.31767 6.08765L3.95764 6.20463L4.55164 6.80771Z" fill="#FFCC00"/>
  <path d="M4.55164 6.80771L3.93911 6.36269L4.16163 6.05643L4.55164 6.80771Z" fill="#FFCC00"/>
  <path d="M3.66144 6.80768L4.27396 6.36266L4.05145 6.0564L3.66144 6.80768Z" fill="#FFCC00"/>
  <path d="M3.66144 6.80768L3.8954 6.08762L4.25543 6.2046L3.66144 6.80768Z" fill="#FFCC00"/>
  <path d="M3.38629 5.96121L3.99881 6.40623L4.22132 6.09997L3.38629 5.96121Z" fill="#FFCC00"/>
  <path d="M3.38629 5.96121L4.14341 5.96121L4.14341 6.33977L3.38629 5.96121Z" fill="#FFCC00"/>
  <path d="M4.82654 5.96121L4.21402 6.40623L3.99151 6.09997L4.82654 5.96121Z" fill="#FFCC00"/>
  <path d="M4.82654 5.96121L4.06942 5.96121L4.06942 6.33977L4.82654 5.96121Z" fill="#FFCC00"/>
  <path d="M4.10632 5.43805L4.34029 6.15811L3.98025 6.27509L4.10632 5.43805Z" fill="#FFCC00"/>
  <path d="M4.10632 5.43805L3.87236 6.15811L4.23239 6.27509L4.10632 5.43805Z" fill="#FFCC00"/>
  <path d="M4.82666 10.5039L4.06954 10.5039L4.06954 10.8824L4.82666 10.5039Z" fill="#FFCC00"/>
  <path d="M4.82666 10.5039L4.21414 10.9489L3.99163 10.6426L4.82666 10.5039Z" fill="#FFCC00"/>
  <path d="M4.552 11.3503L4.31804 10.6303L3.95801 10.7473L4.552 11.3503Z" fill="#FFCC00"/>
  <path d="M4.552 11.3503L3.93948 10.9053L4.16199 10.5991L4.552 11.3503Z" fill="#FFCC00"/>
  <path d="M3.6618 11.3504L4.27432 10.9054L4.05181 10.5991L3.6618 11.3504Z" fill="#FFCC00"/>
  <path d="M3.6618 11.3504L3.89577 10.6303L4.2558 10.7473L3.6618 11.3504Z" fill="#FFCC00"/>
  <path d="M4.10706 9.98074L4.34102 10.7008L3.98099 10.8178L4.10706 9.98074Z" fill="#FFCC00"/>
  <path d="M4.10706 9.98074L3.87309 10.7008L4.23312 10.8178L4.10706 9.98074Z" fill="#FFCC00"/>
  <path d="M3.38684 10.5039L4.14396 10.5039L4.14396 10.8824L3.38684 10.5039Z" fill="#FFCC00"/>
  <path d="M3.38684 10.5039L3.99936 10.9489L4.22187 10.6426L3.38684 10.5039Z" fill="#FFCC00"/>
  <path d="M6.48944 12.1667L5.73232 12.1667L5.73232 12.5452L6.48944 12.1667Z" fill="#FFCC00"/>
  <path d="M6.48944 12.1667L5.87692 12.6117L5.65441 12.3054L6.48944 12.1667Z" fill="#FFCC00"/>
  <path d="M6.2146 13.0132L5.98064 12.2931L5.62061 12.4101L6.2146 13.0132Z" fill="#FFCC00"/>
  <path d="M6.2146 13.0132L5.60208 12.5681L5.82459 12.2619L6.2146 13.0132Z" fill="#FFCC00"/>
  <path d="M5.32452 13.0131L5.93704 12.5681L5.71453 12.2618L5.32452 13.0131Z" fill="#FFCC00"/>
  <path d="M5.32452 13.0131L5.55849 12.293L5.91852 12.41L5.32452 13.0131Z" fill="#FFCC00"/>
  <path d="M5.76978 11.6435L6.00374 12.3635L5.64371 12.4805L5.76978 11.6435Z" fill="#FFCC00"/>
  <path d="M5.76978 11.6435L5.53581 12.3635L5.89584 12.4805L5.76978 11.6435Z" fill="#FFCC00"/>
  <path d="M5.04956 12.1666L5.80668 12.1666L5.80668 12.5452L5.04956 12.1666Z" fill="#FFCC00"/>
  <path d="M5.04956 12.1666L5.66208 12.6116L5.88459 12.3054L5.04956 12.1666Z" fill="#FFCC00"/>
  <path d="M12.5834 7.70944L12.8174 8.4295L12.4574 8.54648L12.5834 7.70944Z" fill="#FFCC00"/>
  <path d="M12.5834 7.70944L12.3495 8.4295L12.7095 8.54648L12.5834 7.70944Z" fill="#FFCC00"/>
  <path d="M11.8635 8.2326L12.6206 8.2326V8.61116L11.8635 8.2326Z" fill="#FFCC00"/>
  <path d="M11.8635 8.2326L12.476 8.67763L12.6985 8.37137L11.8635 8.2326Z" fill="#FFCC00"/>
  <path d="M12.1386 9.07904L12.3726 8.35898L12.7326 8.47596L12.1386 9.07904Z" fill="#FFCC00"/>
  <path d="M12.1386 9.07904L12.7511 8.63402L12.5286 8.32776L12.1386 9.07904Z" fill="#FFCC00"/>
  <path d="M13.3036 8.2326L12.5465 8.2326V8.61116L13.3036 8.2326Z" fill="#FFCC00"/>
  <path d="M13.3036 8.2326L12.6911 8.67763L12.4686 8.37137L13.3036 8.2326Z" fill="#FFCC00"/>
  <path d="M13.0285 9.07904L12.7945 8.35898L12.4345 8.47596L13.0285 9.07904Z" fill="#FFCC00"/>
  <path d="M13.0285 9.07904L12.416 8.63402L12.6385 8.32776L13.0285 9.07904Z" fill="#FFCC00"/>
  <path d="M10.757 5.14493L10.1444 4.69991L10.3669 4.39365L10.757 5.14493Z" fill="#FFCC00"/>
  <path d="M10.757 5.14493L10.523 4.42487L10.163 4.54185L10.757 5.14493Z" fill="#FFCC00"/>
  <path d="M11.032 4.29843L10.4195 4.74345L10.197 4.43719L11.032 4.29843Z" fill="#FFCC00"/>
  <path d="M11.032 4.29843L10.2749 4.29843L10.2749 4.67699L11.032 4.29843Z" fill="#FFCC00"/>
  <path d="M10.3117 3.77527L10.5457 4.49533L10.1856 4.61231L10.3117 3.77527Z" fill="#FFCC00"/>
  <path d="M10.3117 3.77527L10.0777 4.49533L10.4378 4.61231L10.3117 3.77527Z" fill="#FFCC00"/>
  <path d="M9.867 5.1449L10.4795 4.69987L10.257 4.39361L9.867 5.1449Z" fill="#FFCC00"/>
  <path d="M9.867 5.1449L10.101 4.42484L10.461 4.54182L9.867 5.1449Z" fill="#FFCC00"/>
  <path d="M9.59186 4.2984L10.2044 4.74342L10.4269 4.43716L9.59186 4.2984Z" fill="#FFCC00"/>
  <path d="M9.59186 4.2984L10.349 4.2984L10.349 4.67696L9.59186 4.2984Z" fill="#FFCC00"/>
  <path d="M11.5298 6.80771L11.7637 6.08765L12.1238 6.20463L11.5298 6.80771Z" fill="#FFCC00"/>
  <path d="M11.5298 6.80771L12.1423 6.36269L11.9198 6.05643L11.5298 6.80771Z" fill="#FFCC00"/>
  <path d="M12.42 6.80768L11.8075 6.36266L12.03 6.0564L12.42 6.80768Z" fill="#FFCC00"/>
  <path d="M12.42 6.80768L12.186 6.08762L11.826 6.2046L12.42 6.80768Z" fill="#FFCC00"/>
  <path d="M12.6951 5.96121L12.0826 6.40623L11.8601 6.09997L12.6951 5.96121Z" fill="#FFCC00"/>
  <path d="M12.6951 5.96121L11.938 5.96121L11.938 6.33977L12.6951 5.96121Z" fill="#FFCC00"/>
  <path d="M11.2549 5.96121L11.8674 6.40623L12.0899 6.09997L11.2549 5.96121Z" fill="#FFCC00"/>
  <path d="M11.2549 5.96121L12.012 5.96121L12.012 6.33977L11.2549 5.96121Z" fill="#FFCC00"/>
  <path d="M11.9751 5.43805L11.7411 6.15811L12.1012 6.27509L11.9751 5.43805Z" fill="#FFCC00"/>
  <path d="M11.9751 5.43805L12.2091 6.15811L11.849 6.27509L11.9751 5.43805Z" fill="#FFCC00"/>
  <path d="M11.2548 10.5039L12.0119 10.5039V10.8824L11.2548 10.5039Z" fill="#FFCC00"/>
  <path d="M11.2548 10.5039L11.8673 10.9489L12.0898 10.6426L11.2548 10.5039Z" fill="#FFCC00"/>
  <path d="M11.5294 11.3503L11.7634 10.6303L12.1234 10.7473L11.5294 11.3503Z" fill="#FFCC00"/>
  <path d="M11.5294 11.3503L12.1419 10.9053L11.9194 10.5991L11.5294 11.3503Z" fill="#FFCC00"/>
  <path d="M12.4196 11.3504L11.8071 10.9054L12.0296 10.5991L12.4196 11.3504Z" fill="#FFCC00"/>
  <path d="M12.4196 11.3504L12.1857 10.6303L11.8256 10.7473L12.4196 11.3504Z" fill="#FFCC00"/>
  <path d="M11.9744 9.98074L11.7404 10.7008L12.1004 10.8178L11.9744 9.98074Z" fill="#FFCC00"/>
  <path d="M11.9744 9.98074L12.2083 10.7008L11.8483 10.8178L11.9744 9.98074Z" fill="#FFCC00"/>
  <path d="M12.6946 10.5039L11.9375 10.5039L11.9375 10.8824L12.6946 10.5039Z" fill="#FFCC00"/>
  <path d="M12.6946 10.5039L12.0821 10.9489L11.8595 10.6426L12.6946 10.5039Z" fill="#FFCC00"/>
  <path d="M9.59204 12.1667L10.3492 12.1667L10.3492 12.5452L9.59204 12.1667Z" fill="#FFCC00"/>
  <path d="M9.59204 12.1667L10.2046 12.6117L10.4271 12.3054L9.59204 12.1667Z" fill="#FFCC00"/>
  <path d="M9.86682 13.0132L10.1008 12.2931L10.4608 12.4101L9.86682 13.0132Z" fill="#FFCC00"/>
  <path d="M9.86682 13.0132L10.4793 12.5681L10.2568 12.2619L9.86682 13.0132Z" fill="#FFCC00"/>
  <path d="M10.7569 13.0131L10.1444 12.5681L10.3669 12.2618L10.7569 13.0131Z" fill="#FFCC00"/>
  <path d="M10.7569 13.0131L10.5229 12.293L10.1629 12.41L10.7569 13.0131Z" fill="#FFCC00"/>
  <path d="M10.3118 11.6435L10.0778 12.3635L10.4378 12.4805L10.3118 11.6435Z" fill="#FFCC00"/>
  <path d="M10.3118 11.6435L10.5457 12.3635L10.1857 12.4805L10.3118 11.6435Z" fill="#FFCC00"/>
  <path d="M11.0319 12.1666L10.2747 12.1666L10.2747 12.5452L11.0319 12.1666Z" fill="#FFCC00"/>
  <path d="M11.0319 12.1666L10.4193 12.6116L10.1968 12.3054L11.0319 12.1666Z" fill="#FFCC00"/>
  </svg>
  