<svg width="108" height="37" viewBox="0 0 108 37" fill="none" xmlns="http://www.w3.org/2000/svg">
  <path
    d="M19.8 9.748V26.5H16.44V14.812L12.144 26.5H9.216L4.92 14.86V26.5H1.536V9.748H5.64L10.728 22.348L15.72 9.748H19.8ZM28.0721 13.036C29.1921 13.036 30.1521 13.3 30.9521 13.828C31.7521 14.356 32.3201 15.068 32.6561 15.964V13.204H36.0161V26.5H32.6561V23.716C32.3201 24.612 31.7521 25.332 30.9521 25.876C30.1521 26.404 29.1921 26.668 28.0721 26.668C26.9521 26.668 25.9441 26.396 25.0481 25.852C24.1521 25.308 23.4481 24.524 22.9361 23.5C22.4401 22.46 22.1921 21.244 22.1921 19.852C22.1921 18.46 22.4401 17.252 22.9361 16.228C23.4481 15.188 24.1521 14.396 25.0481 13.852C25.9441 13.308 26.9521 13.036 28.0721 13.036ZM29.1281 15.988C28.0721 15.988 27.2241 16.332 26.5841 17.02C25.9441 17.708 25.6241 18.652 25.6241 19.852C25.6241 21.052 25.9441 21.996 26.5841 22.684C27.2241 23.356 28.0721 23.692 29.1281 23.692C30.1521 23.692 30.9921 23.348 31.6481 22.66C32.3201 21.956 32.6561 21.02 32.6561 19.852C32.6561 18.668 32.3201 17.732 31.6481 17.044C30.9921 16.34 30.1521 15.988 29.1281 15.988ZM42.4669 15.748C42.9629 14.9 43.6189 14.236 44.4349 13.756C45.2509 13.26 46.1629 13.012 47.1709 13.012V16.636H46.1869C43.7069 16.636 42.4669 17.788 42.4669 20.092V26.5H39.0829V13.204H42.4669V15.748ZM52.4278 8.74V26.5H49.0438V8.74H52.4278ZM55.1051 9.388C55.1051 8.844 55.2971 8.404 55.6811 8.068C56.0651 7.716 56.5691 7.54 57.1931 7.54C57.8171 7.54 58.3211 7.716 58.7051 8.068C59.0891 8.404 59.2811 8.844 59.2811 9.388C59.2811 9.916 59.0891 10.356 58.7051 10.708C58.3211 11.044 57.8171 11.212 57.1931 11.212C56.5691 11.212 56.0651 11.044 55.6811 10.708C55.2971 10.356 55.1051 9.916 55.1051 9.388ZM58.8731 13.204V26.5H55.4891V13.204H58.8731ZM69.8544 13.012C71.3904 13.012 72.6144 13.516 73.5264 14.524C74.4384 15.532 74.8944 16.948 74.8944 18.772V26.5H71.5344V19.156C71.5344 18.1 71.2624 17.284 70.7184 16.708C70.1744 16.116 69.4304 15.82 68.4864 15.82C67.5264 15.82 66.7584 16.132 66.1824 16.756C65.6064 17.38 65.3184 18.276 65.3184 19.444V26.5H61.9344V13.204H65.3184V15.868C65.6704 14.972 66.2464 14.276 67.0464 13.78C67.8624 13.268 68.7984 13.012 69.8544 13.012ZM83.0799 13.036C84.1999 13.036 85.1599 13.3 85.9599 13.828C86.7599 14.356 87.3279 15.068 87.6639 15.964V13.204H91.0239V26.548C91.0239 27.78 90.7759 28.884 90.2799 29.86C89.7999 30.852 89.0719 31.628 88.0959 32.188C87.1359 32.748 85.9679 33.028 84.5919 33.028C82.6719 33.028 81.1199 32.572 79.9359 31.66C78.7519 30.748 78.0319 29.508 77.7759 27.94H81.1119C81.3039 28.612 81.6719 29.132 82.2159 29.5C82.7759 29.884 83.4879 30.076 84.3519 30.076C85.3439 30.076 86.1439 29.78 86.7519 29.188C87.3599 28.612 87.6639 27.732 87.6639 26.548V23.716C87.3279 24.612 86.7599 25.332 85.9599 25.876C85.1599 26.404 84.1999 26.668 83.0799 26.668C81.9599 26.668 80.9519 26.396 80.0559 25.852C79.1599 25.308 78.4559 24.524 77.9439 23.5C77.4479 22.46 77.1999 21.244 77.1999 19.852C77.1999 18.46 77.4479 17.252 77.9439 16.228C78.4559 15.188 79.1599 14.396 80.0559 13.852C80.9519 13.308 81.9599 13.036 83.0799 13.036ZM84.1359 15.988C83.0799 15.988 82.2319 16.332 81.5919 17.02C80.9519 17.708 80.6319 18.652 80.6319 19.852C80.6319 21.052 80.9519 21.996 81.5919 22.684C82.2319 23.356 83.0799 23.692 84.1359 23.692C85.1599 23.692 85.9999 23.348 86.6559 22.66C87.3279 21.956 87.6639 21.02 87.6639 19.852C87.6639 18.668 87.3279 17.732 86.6559 17.044C85.9999 16.34 85.1599 15.988 84.1359 15.988ZM100.235 13.036C101.531 13.036 102.691 13.308 103.715 13.852C104.755 14.396 105.571 15.188 106.163 16.228C106.755 17.252 107.051 18.46 107.051 19.852C107.051 21.244 106.755 22.452 106.163 23.476C105.571 24.5 104.755 25.292 103.715 25.852C102.691 26.396 101.531 26.668 100.235 26.668C98.9387 26.668 97.7707 26.396 96.7307 25.852C95.7067 25.292 94.8987 24.5 94.3067 23.476C93.7147 22.452 93.4187 21.244 93.4187 19.852C93.4187 18.46 93.7147 17.252 94.3067 16.228C94.8987 15.188 95.7067 14.396 96.7307 13.852C97.7707 13.308 98.9387 13.036 100.235 13.036ZM100.235 15.964C99.2907 15.964 98.4907 16.3 97.8347 16.972C97.1787 17.628 96.8507 18.588 96.8507 19.852C96.8507 21.116 97.1787 22.084 97.8347 22.756C98.4907 23.412 99.2907 23.74 100.235 23.74C101.179 23.74 101.979 23.412 102.635 22.756C103.291 22.084 103.619 21.116 103.619 19.852C103.619 18.588 103.291 17.628 102.635 16.972C101.979 16.3 101.179 15.964 100.235 15.964Z"
    fill="#1A1919" />
</svg>